<?xml version="1.0" standalone="no"?>
<!DOCTYPE svg PUBLIC "-//W3C//DTD SVG 20010904//EN"
 "http://www.w3.org/TR/2001/REC-SVG-20010904/DTD/svg10.dtd">
<svg version="1.0" xmlns="http://www.w3.org/2000/svg"
 width="1242.000000pt" height="1280.000000pt" viewBox="0 0 1242.000000 1280.000000"
 preserveAspectRatio="xMidYMid meet">
<g transform="translate(0.000000,1280.000000) scale(0.100000,-0.100000)"
fill="#000000" stroke="none">
<path d="M3615 12790 c-16 -5 -74 -18 -127 -30 -109 -24 -213 -71 -303 -134
-79 -57 -241 -227 -284 -299 -290 -488 11 -1210 671 -1606 223 -134 517 -221
747 -221 44 0 81 -4 81 -9 0 -5 -24 -17 -52 -26 -83 -27 -127 -57 -215 -148
-115 -118 -145 -182 -151 -327 -4 -85 0 -122 16 -188 61 -242 246 -462 475
-567 95 -43 162 -58 261 -57 83 1 152 18 208 52 16 10 71 57 120 105 104 101
141 166 159 284 29 189 -61 434 -224 607 -144 154 -283 226 -502 260 -50 7
-34 17 65 37 101 20 221 68 298 118 80 52 218 182 278 262 274 361 169 932
-250 1366 -246 254 -551 427 -867 490 -57 12 -126 26 -152 31 -57 12 -209 12
-252 0z m454 -1145 c202 -100 311 -160 351 -194 40 -34 7 -18 -250 114 -286
149 -332 175 -302 175 5 0 95 -43 201 -95z"/>
<path d="M10455 12500 c-70 -10 -168 -41 -234 -75 -156 -79 -362 -299 -432
-462 -114 -265 -112 -613 6 -943 40 -112 147 -313 223 -419 337 -472 873 -714
1283 -580 126 41 196 87 323 209 162 156 241 296 288 515 21 99 15 380 -11
498 -147 681 -712 1235 -1284 1261 -56 3 -129 1 -162 -4z m247 -952 c69 -141
211 -495 205 -511 -3 -7 -22 26 -44 73 -47 100 -218 504 -228 539 -16 52 15 7
67 -101z"/>
<path d="M1708 12280 c-122 -21 -281 -91 -408 -181 -93 -65 -261 -227 -347
-334 -306 -381 -398 -876 -226 -1224 51 -102 159 -216 253 -265 240 -127 528
-93 816 95 96 63 322 283 409 397 158 211 251 446 275 696 17 183 -9 334 -81
485 -50 103 -161 219 -256 269 -121 63 -287 87 -435 62z m302 -287 c0 -4 -20
-32 -44 -62 -121 -156 -198 -301 -370 -704 -192 -449 -296 -628 -412 -708 -77
-53 -83 -33 -15 51 123 154 205 314 376 735 147 362 268 571 377 651 55 40 88
54 88 37z"/>
<path d="M8104 12255 c-143 -36 -287 -106 -406 -196 -80 -60 -270 -251 -333
-335 -62 -81 -131 -223 -155 -318 -24 -95 -27 -245 -5 -325 52 -196 206 -333
425 -377 184 -37 387 -2 595 101 139 68 251 153 387 292 211 217 308 420 308
644 0 167 -42 273 -149 380 -115 115 -240 159 -451 158 -98 0 -145 -5 -216
-24z m546 -368 c0 -26 -76 -122 -132 -167 -68 -55 -238 -153 -523 -302 -227
-119 -367 -207 -457 -287 -53 -48 -78 -62 -78 -43 0 12 58 103 84 131 62 68
218 162 536 320 241 120 377 204 485 299 73 64 85 71 85 49z"/>
<path d="M2760 11070 c-80 -29 -143 -75 -250 -182 -98 -98 -145 -166 -186
-266 -121 -301 46 -583 316 -532 107 20 175 63 306 194 105 105 127 133 163
206 96 196 91 389 -12 506 -80 91 -210 119 -337 74z m240 -79 c0 -15 -28 -33
-40 -26 -8 5 -8 11 1 21 13 15 39 19 39 5z m-90 -87 c0 -4 -15 -27 -33 -53
-19 -25 -46 -68 -61 -94 -15 -27 -30 -46 -33 -43 -7 6 49 127 77 167 19 25 50
40 50 23z m-299 -581 c-22 -45 -46 -68 -55 -55 -6 9 65 104 72 97 2 -1 -6 -21
-17 -42z m-111 -133 c-15 -10 -40 -13 -40 -6 0 3 7 12 16 21 12 12 20 13 28 5
8 -8 7 -13 -4 -20z"/>
<path d="M9125 10840 c-110 -12 -242 -52 -349 -107 -78 -40 -109 -64 -218
-172 -106 -106 -132 -138 -161 -199 -68 -142 -69 -269 -4 -406 143 -300 596
-457 1013 -351 85 22 180 61 249 103 74 45 234 193 292 270 166 220 115 511
-120 688 -185 139 -439 202 -702 174z m265 -599 c-14 -8 -206 -45 -277 -54
-18 -2 -33 0 -33 5 0 4 3 8 8 8 4 0 59 11 122 25 116 24 209 32 180 16z"/>
<path d="M6121 10699 c-128 -22 -246 -89 -382 -218 -215 -203 -328 -410 -386
-706 -24 -124 -24 -394 0 -525 98 -529 464 -899 857 -866 193 16 325 90 517
289 146 152 227 294 288 502 98 340 64 738 -90 1039 -63 123 -119 199 -220
294 -169 160 -370 226 -584 191z m149 -732 c0 -150 -15 -274 -106 -859 -3 -21
-11 -38 -16 -38 -17 0 -2 256 27 465 14 99 34 257 46 350 25 206 27 217 39
210 6 -4 10 -60 10 -128z"/>
<path d="M3535 10313 c-38 -20 -169 -152 -188 -190 -8 -15 -20 -54 -27 -86
-44 -213 118 -427 277 -366 45 17 180 157 205 214 34 75 32 209 -3 285 -14 30
-39 70 -54 89 -54 64 -147 88 -210 54z m85 -42 c13 -25 13 -61 0 -61 -13 0
-30 34 -30 59 0 26 16 27 30 2z m-82 -503 c14 -14 16 -68 4 -68 -5 0 -14 11
-20 25 -21 46 -12 71 16 43z"/>
<path d="M7435 10321 c-57 -14 -100 -44 -179 -124 -100 -102 -119 -142 -124
-269 -3 -79 0 -110 17 -165 53 -173 174 -315 331 -392 69 -33 82 -36 165 -36
113 0 148 17 257 125 97 96 120 144 126 259 6 106 -9 174 -61 281 -33 67 -58
102 -122 165 -44 44 -103 92 -131 107 -91 49 -200 68 -279 49z"/>
<path d="M1873 9985 c-102 -22 -177 -69 -286 -178 -108 -108 -153 -183 -163
-273 -13 -111 49 -206 155 -238 68 -20 111 -20 186 -1 99 26 169 71 275 177
114 114 152 178 158 269 6 85 -4 125 -46 171 -65 73 -165 99 -279 73z m247
-150 c-15 -27 -40 -34 -40 -11 0 16 40 49 49 41 2 -3 -2 -16 -9 -30z m-93 -82
c-9 -9 -20 -13 -24 -9 -4 4 1 14 11 22 25 18 35 8 13 -13z m-395 -223 c-18
-17 -37 -30 -42 -30 -17 0 2 30 29 45 42 23 48 17 13 -15z m-86 -72 c4 -6 -3
-20 -17 -31 -26 -21 -36 -9 -19 22 12 23 25 27 36 9z"/>
<path d="M10610 9881 c-89 -27 -256 -170 -325 -276 -125 -195 -96 -431 60
-491 63 -23 153 -15 225 21 68 34 244 209 282 281 99 184 64 391 -77 455 -41
19 -120 23 -165 10z m150 -92 c-12 -22 -40 -26 -40 -4 0 15 30 36 42 29 5 -3
3 -14 -2 -25z m-366 -578 c7 -11 -30 -44 -44 -39 -6 2 -5 11 5 26 17 23 30 28
39 13z"/>
<path d="M553 9765 c-91 -20 -155 -59 -256 -155 -176 -167 -238 -289 -287
-566 -28 -160 30 -426 132 -598 56 -95 166 -205 247 -245 141 -71 271 -73 406
-7 57 28 93 58 187 153 102 105 121 130 161 213 67 137 90 244 91 410 0 138
-10 206 -46 320 -107 334 -374 534 -635 475z"/>
<path d="M11761 9745 c-89 -25 -160 -73 -266 -179 -115 -115 -172 -197 -215
-309 -55 -141 -64 -197 -64 -377 0 -150 3 -173 28 -255 108 -355 378 -536 648
-435 79 29 124 62 237 172 149 145 218 269 263 473 39 175 33 297 -24 485 -55
181 -172 330 -311 396 -65 30 -90 37 -159 40 -55 3 -101 -1 -137 -11z m75
-712 c-21 -103 -36 -156 -43 -150 -6 6 22 153 38 205 19 58 22 26 5 -55z"/>
<path d="M2867 9720 c-202 -34 -344 -116 -516 -295 -194 -204 -272 -424 -258
-730 10 -199 54 -367 146 -560 101 -212 218 -372 398 -545 317 -305 698 -466
1057 -447 141 8 216 27 341 87 112 54 158 91 291 231 127 133 190 253 231 433
23 102 22 334 -1 456 -130 674 -736 1280 -1371 1370 -82 11 -249 11 -318 0z
m302 -990 c72 -106 297 -474 336 -550 9 -17 14 -34 12 -37 -8 -8 -86 108 -264
392 -94 149 -184 292 -201 319 -18 28 -32 55 -32 60 1 19 69 -65 149 -184z"/>
<path d="M8925 9385 c-146 -32 -256 -94 -369 -208 -187 -189 -231 -288 -230
-512 1 -142 22 -234 83 -370 133 -293 445 -572 771 -689 179 -65 388 -91 539
-67 187 29 302 91 452 240 91 91 112 118 147 191 51 108 66 172 66 290 -1 500
-485 1015 -1057 1125 -97 18 -319 19 -402 0z"/>
<path d="M7685 9085 c-160 -35 -282 -109 -432 -262 -120 -122 -180 -202 -228
-306 -47 -102 -68 -194 -67 -302 0 -256 162 -425 406 -425 184 1 342 78 528
258 119 115 176 189 230 296 95 189 105 420 26 556 -57 96 -161 168 -273 189
-74 14 -114 13 -190 -4z m310 -155 c-3 -5 -10 -10 -16 -10 -5 0 -9 5 -9 10 0
6 7 10 16 10 8 0 12 -4 9 -10z m-96 -97 c-8 -9 -35 -39 -62 -67 -62 -67 -122
-153 -252 -366 -137 -224 -187 -290 -254 -334 -94 -63 -97 -41 -7 54 68 73
154 198 256 375 81 140 150 244 190 284 36 36 96 70 124 71 16 0 17 -2 5 -17z
m-714 -883 c-3 -5 -10 -10 -16 -10 -5 0 -9 5 -9 10 0 6 7 10 16 10 8 0 12 -4
9 -10z"/>
<path d="M1655 8881 c-22 -10 -74 -54 -115 -98 -94 -98 -115 -151 -108 -274
11 -191 148 -320 284 -269 15 6 64 48 109 94 102 103 119 145 113 275 -3 69
-10 99 -31 143 -33 67 -91 123 -144 137 -51 14 -61 14 -108 -8z m81 -52 c10
-21 12 -35 6 -41 -17 -17 -32 1 -32 38 0 42 5 43 26 3z m-74 -526 c2 -12 -1
-23 -7 -25 -13 -3 -38 49 -29 63 9 15 31 -9 36 -38z"/>
<path d="M5231 8705 c-94 -27 -152 -66 -272 -185 -171 -169 -233 -296 -232
-475 1 -198 101 -321 272 -333 129 -9 237 47 388 198 111 111 155 174 195 283
27 71 31 96 31 182 1 113 -19 182 -73 247 -65 78 -198 114 -309 83z m209 -84
c0 -5 -7 -17 -16 -26 -13 -12 -20 -13 -28 -5 -8 8 -6 15 8 26 23 16 36 18 36
5z m-90 -87 c0 -4 -19 -36 -43 -73 -24 -36 -53 -82 -65 -101 -12 -19 -22 -29
-22 -22 0 23 56 136 84 170 25 29 46 41 46 26z m-301 -593 c-21 -38 -46 -58
-57 -46 -3 2 12 25 33 50 44 55 56 53 24 -4z m-101 -113 c-6 -16 -36 -34 -44
-25 -9 9 15 37 33 37 8 0 13 -5 11 -12z"/>
<path d="M10814 8480 c-57 -29 -205 -183 -239 -250 -34 -66 -46 -187 -25 -251
17 -51 78 -106 127 -115 45 -8 114 8 157 38 60 42 184 174 209 224 69 136 51
289 -42 351 -45 30 -129 31 -187 3z m166 -52 c0 -30 -13 -58 -26 -58 -17 0
-18 24 -4 51 12 21 30 26 30 7z m-154 -236 c-15 -29 -46 -61 -46 -47 0 14 42
75 51 75 5 0 3 -13 -5 -28z m-146 -213 c0 -25 -17 -59 -30 -59 -13 0 -13 36 0
61 14 25 30 24 30 -2z"/>
<path d="M1062 8205 c-158 -36 -273 -106 -418 -251 -159 -161 -228 -279 -281
-483 -34 -132 -42 -359 -19 -517 102 -695 645 -1309 1236 -1399 121 -19 176
-19 285 0 100 18 208 60 292 114 82 53 255 227 312 316 340 520 144 1390 -427
1898 -160 142 -366 258 -548 307 -103 28 -338 36 -432 15z m312 -1163 c216
-277 271 -351 263 -358 -5 -5 -195 221 -312 371 -86 110 -175 241 -175 258 0
15 -8 25 224 -271z"/>
<path d="M6063 8086 c-54 -17 -95 -47 -167 -121 -85 -87 -106 -117 -127 -186
-86 -277 140 -652 458 -758 85 -29 212 -29 287 0 77 28 224 171 262 253 55
121 40 293 -39 449 -33 64 -62 103 -137 178 -100 101 -179 151 -289 183 -65
19 -189 20 -248 2z"/>
<path d="M11020 7819 c-91 -23 -218 -83 -313 -146 -137 -93 -351 -315 -449
-468 -203 -315 -272 -693 -182 -1005 48 -168 181 -333 324 -402 102 -49 167
-63 290 -62 177 1 361 68 526 192 108 81 306 281 377 379 161 226 267 537 267
784 0 82 -24 228 -49 302 -76 220 -238 380 -437 431 -88 23 -258 20 -354 -5z
m340 -413 c0 -27 -43 -152 -77 -224 -54 -115 -154 -256 -388 -547 -119 -148
-244 -314 -278 -367 -34 -54 -65 -98 -69 -98 -25 -1 6 98 68 223 57 114 134
230 267 399 59 76 155 200 215 276 59 75 138 185 177 245 67 103 85 123 85 93z"/>
<path d="M7965 7646 c-70 -22 -98 -42 -181 -128 -102 -105 -118 -143 -112
-265 6 -124 50 -216 157 -323 122 -122 249 -182 396 -183 121 -2 170 19 267
112 108 103 130 143 136 241 8 145 -53 279 -183 398 -139 127 -345 191 -480
148z"/>
<path d="M9105 7371 c-16 -4 -41 -13 -55 -21 -41 -21 -162 -152 -181 -195 -60
-135 -12 -320 116 -451 80 -81 156 -118 244 -118 82 0 106 12 199 102 135 130
154 257 67 440 -76 160 -261 276 -390 243z"/>
<path d="M4776 7224 c-177 -38 -304 -112 -453 -262 -134 -135 -175 -212 -181
-340 -3 -70 0 -99 17 -146 44 -127 169 -236 331 -290 113 -38 302 -47 431 -21
191 38 310 105 465 261 81 81 110 118 140 180 37 75 39 82 39 179 0 93 -2 105
-32 166 -64 129 -212 233 -390 273 -90 20 -273 20 -367 0z"/>
<path d="M3275 6955 c-5 -2 -35 -11 -65 -20 -86 -26 -162 -78 -270 -186 -168
-166 -223 -276 -224 -444 -1 -84 3 -108 22 -150 61 -133 189 -193 344 -160
126 26 188 64 329 205 112 111 131 135 167 210 22 47 46 113 53 148 36 187
-41 342 -193 387 -46 13 -136 19 -163 10z m213 -117 c-6 -16 -36 -34 -44 -25
-9 9 15 37 33 37 8 0 13 -5 11 -12z m-88 -83 c0 -3 -28 -39 -63 -80 -35 -42
-103 -142 -153 -222 -104 -172 -153 -237 -194 -258 -58 -30 -55 -10 8 58 59
63 89 107 188 274 91 154 117 189 158 214 30 18 56 25 56 14z m-490 -635 c0
-10 -39 -34 -46 -27 -3 2 -2 12 2 21 7 17 44 23 44 6z"/>
<path d="M6665 6846 c-74 -23 -110 -48 -197 -138 -94 -96 -113 -133 -105 -203
6 -55 36 -98 95 -132 43 -26 56 -28 147 -28 141 0 193 25 314 150 74 76 91
100 98 136 21 101 -38 189 -146 219 -49 13 -157 11 -206 -4z m305 -154 c0 -12
-23 -32 -37 -32 -19 0 -16 28 5 33 28 8 32 7 32 -1z m-507 -159 c12 -11 -15
-33 -41 -33 -24 0 -25 1 -7 20 18 20 36 25 48 13z"/>
<path d="M7909 6586 c-72 -19 -128 -58 -220 -153 -96 -98 -131 -157 -160 -271
-92 -360 149 -817 491 -932 90 -31 220 -25 301 12 68 31 196 150 250 231 67
102 84 171 84 332 -1 167 -14 224 -85 371 -147 304 -422 475 -661 410z"/>
<path d="M9625 6341 c-37 -23 -134 -117 -163 -158 -12 -17 -29 -59 -38 -94
-36 -140 19 -306 120 -363 100 -57 148 -45 261 70 100 101 120 146 120 269 -1
66 -6 91 -28 140 -30 64 -75 118 -119 141 -39 20 -117 18 -153 -5z m93 -46
c16 -34 15 -45 -2 -45 -13 0 -26 28 -26 58 0 21 16 13 28 -13z m-74 -501 c3
-9 6 -28 6 -42 l-1 -27 -19 24 c-11 13 -20 32 -20 42 0 23 25 25 34 3z"/>
<path d="M6475 6183 c-132 -28 -263 -91 -381 -184 -100 -79 -288 -282 -354
-382 -138 -208 -226 -445 -266 -717 -23 -160 -15 -471 16 -615 125 -583 491
-955 939 -955 190 0 355 57 517 178 107 80 306 288 376 393 370 553 385 1357
35 1879 -61 91 -200 232 -282 285 -179 117 -401 161 -600 118z m234 -685 c2
-193 -39 -416 -144 -803 -89 -324 -130 -488 -155 -625 -12 -63 -25 -119 -30
-123 -14 -16 -21 47 -15 133 18 242 55 428 175 890 54 205 105 436 120 535 6
44 16 91 22 105 10 24 11 24 19 5 4 -11 8 -64 8 -117z"/>
<path d="M5227 6150 c-65 -25 -107 -57 -207 -159 -147 -150 -199 -301 -154
-450 43 -145 184 -198 338 -128 67 31 226 179 276 258 93 145 96 340 7 438
-55 59 -167 77 -260 41z m183 -71 c-12 -22 -37 -35 -47 -25 -9 8 27 46 44 46
11 0 11 -4 3 -21z m-370 -594 c0 -15 -38 -41 -47 -32 -2 3 0 15 7 26 12 24 40
28 40 6z"/>
<path d="M3764 6110 c-76 -16 -137 -56 -230 -152 -101 -103 -126 -144 -155
-255 -34 -136 -20 -293 42 -453 63 -163 204 -326 339 -392 138 -67 252 -73
366 -19 72 34 228 191 263 264 122 253 41 622 -187 844 -132 128 -303 192
-438 163z"/>
<path d="M2510 5620 c-82 -17 -142 -56 -233 -148 -116 -119 -157 -211 -157
-354 0 -67 27 -191 57 -263 60 -145 206 -316 336 -393 128 -77 282 -107 397
-78 84 22 128 51 224 149 109 111 138 174 144 312 6 130 -14 222 -72 342 -96
197 -281 364 -463 417 -69 20 -177 27 -233 16z"/>
<path d="M9404 5465 c-159 -35 -299 -120 -459 -280 -130 -130 -188 -207 -249
-336 -61 -125 -77 -192 -83 -329 -9 -189 29 -304 134 -409 148 -147 367 -170
597 -63 111 51 180 103 303 223 134 132 192 208 254 334 110 226 120 471 27
647 -94 178 -301 262 -524 213z m246 -339 c0 -25 -38 -104 -81 -169 -25 -36
-164 -183 -332 -350 -243 -241 -289 -282 -283 -256 8 42 58 128 117 202 52 64
559 584 572 586 4 1 7 -5 7 -13z"/>
<path d="M4834 5082 c-82 -29 -148 -77 -252 -187 -80 -84 -108 -121 -146 -197
-105 -209 -123 -455 -51 -668 35 -104 73 -167 141 -237 144 -147 337 -172 507
-64 66 43 219 198 267 272 232 359 139 912 -179 1063 -84 39 -205 47 -287 18z"/>
<path d="M8133 4896 c-69 -23 -131 -64 -215 -145 -148 -141 -211 -265 -212
-416 0 -107 24 -175 84 -229 51 -46 98 -59 184 -54 106 7 169 44 299 176 111
114 154 182 182 289 39 151 -5 297 -110 359 -55 32 -148 41 -212 20z m177 -85
c-13 -25 -27 -34 -41 -26 -13 9 18 45 38 45 10 0 11 -5 3 -19z m-89 -89 c-12
-23 -41 -48 -41 -35 0 5 7 19 16 31 19 27 39 30 25 4z m-251 -486 c0 -3 -4 -8
-10 -11 -5 -3 -10 -1 -10 4 0 6 5 11 10 11 6 0 10 -2 10 -4z m-65 -75 c3 -5
-5 -17 -17 -25 -26 -18 -38 -5 -18 19 14 17 26 19 35 6z"/>
<path d="M3470 4245 c-19 -9 -69 -51 -112 -94 -58 -59 -79 -89 -88 -122 -55
-202 141 -469 346 -470 83 -1 105 11 193 99 92 91 105 122 99 231 -6 94 -39
168 -108 244 -94 103 -240 152 -330 112z"/>
<path d="M8070 3854 c-190 -22 -369 -99 -548 -234 -112 -84 -327 -309 -401
-421 -120 -178 -201 -366 -243 -562 -31 -145 -31 -375 0 -499 44 -177 114
-303 227 -406 265 -243 677 -223 1055 51 99 71 350 333 419 437 122 184 208
387 247 587 21 106 24 339 5 428 -54 261 -187 452 -383 551 -94 48 -273 80
-378 68z m250 -465 c0 -33 -47 -163 -89 -248 -64 -127 -168 -274 -337 -475
-259 -308 -351 -424 -425 -538 -38 -59 -74 -110 -79 -113 -34 -21 13 122 86
265 69 134 179 287 397 553 205 251 305 382 377 495 53 83 70 98 70 61z"/>
<path d="M4368 3609 c-146 -15 -230 -61 -369 -200 -94 -93 -112 -117 -152
-200 -57 -116 -77 -213 -77 -362 0 -133 19 -243 62 -365 139 -395 461 -702
806 -768 93 -18 159 -18 245 1 121 25 190 67 313 190 95 94 117 122 152 195
55 112 72 182 79 316 16 320 -118 654 -362 900 -211 213 -459 317 -697 293z"/>
<path d="M6045 2933 c-41 -12 -67 -32 -146 -112 -114 -114 -133 -155 -133
-291 0 -211 139 -430 336 -531 103 -53 228 -60 314 -19 56 28 199 176 225 235
49 110 33 272 -42 415 -121 234 -358 363 -554 303z"/>
<path d="M6065 1712 c-82 -28 -144 -70 -238 -161 -215 -207 -301 -412 -300
-716 0 -281 79 -490 248 -661 103 -104 205 -155 341 -171 47 -5 162 25 238 64
70 36 267 230 321 318 110 178 159 403 136 626 -36 345 -214 616 -459 698 -79
27 -215 28 -287 3z m124 -765 c-11 -93 -27 -156 -28 -107 -1 25 14 133 25 179
11 48 12 13 3 -72z"/>
</g>
</svg>
